<svg width="18" height="18" viewBox="0 0 18 18" fill="none" xmlns="http://www.w3.org/2000/svg">
<path d="M17.4255 8.96479C17.4255 8.24373 17.3662 7.71754 17.2379 7.17188H8.89062V10.4264H13.7903C13.6915 11.2352 13.1581 12.4532 11.9727 13.2717L11.956 13.3806L14.5953 15.3975L14.7781 15.4155C16.4574 13.8856 17.4255 11.6347 17.4255 8.96479Z" fill="#4C8BF3"/>
<path d="M8.89537 17.5402C11.2958 17.5402 13.311 16.7606 14.7829 15.416L11.9774 13.2722C11.2267 13.7886 10.219 14.1492 8.89537 14.1492C6.54433 14.1492 4.54891 12.6194 3.8376 10.5049L3.73334 10.5136L0.989014 12.6086L0.953125 12.707C2.41511 15.5718 5.41815 17.5402 8.89537 17.5402Z" fill="#34A853"/>
<path d="M3.83278 10.5039C3.64509 9.95819 3.53647 9.3735 3.53647 8.76939C3.53647 8.16521 3.64509 7.58058 3.8229 7.03491L3.81793 6.9187L1.03922 4.79004L0.948302 4.8327C0.345747 6.0215 0 7.35648 0 8.76939C0 10.1823 0.345747 11.5172 0.948302 12.706L3.83278 10.5039Z" fill="#FFD584"/>
<path d="M8.89536 3.39096C10.5648 3.39096 11.6909 4.10228 12.333 4.69672L14.8421 2.28014C13.3011 0.867237 11.2958 0 8.89536 0C5.41814 0 2.41511 1.96831 0.953125 4.83308L3.82772 7.0353C4.54891 4.92082 6.54433 3.39096 8.89536 3.39096Z" fill="#EA4335"/>
</svg>
